<?xml version="1.0" encoding="UTF-8"?>
<svg id="Layer_2" data-name="Layer 2" xmlns="http://www.w3.org/2000/svg" xmlns:xlink="http://www.w3.org/1999/xlink" viewBox="0 0 3267.84 723.72">
  <defs>
    <style>
      .cls-1 {
        fill: #fff;
      }

      .cls-2 {
        fill: url(#radial-gradient);
      }

      .cls-3 {
        fill: url(#radial-gradient-3);
      }

      .cls-4 {
        fill: url(#radial-gradient-2);
      }
    </style>
    <radialGradient id="radial-gradient" cx="356.41" cy="654.15" fx="356.41" fy="654.15" r="697.89" gradientUnits="userSpaceOnUse">
      <stop offset="0" stop-color="#e93bf6"/>
      <stop offset=".52" stop-color="#e93bf6"/>
      <stop offset="1" stop-color="#60286a"/>
    </radialGradient>
    <radialGradient id="radial-gradient-2" cx="296.44" cy="418.03" fx="296.44" fy="418.03" r="272.12" gradientUnits="userSpaceOnUse">
      <stop offset="0" stop-color="#bdacf8"/>
      <stop offset="1" stop-color="#fff"/>
    </radialGradient>
    <radialGradient id="radial-gradient-3" cx="385.53" cy="352.23" fx="385.53" fy="352.23" r="276" xlink:href="#radial-gradient-2"/>
  </defs>
  <g id="Page_1" data-name="Page 1">
    <g>
      <g>
        <path class="cls-1" d="M883.36,97.94h131.58l159.89,284.58,160.65-284.58h130.05v527.85h-105.57V253.23l-155.3,277.7h-60.44l-155.3-277.7v372.56h-105.57V97.94Z"/>
        <path class="cls-1" d="M1527.49,430.71c0-116.28,90.27-204.26,209.61-204.26s209.61,87.97,209.61,204.26-90.27,204.26-209.61,204.26-209.61-87.97-209.61-204.26ZM1844.2,430.71c0-61.2-45.13-107.87-107.1-107.87s-107.1,46.66-107.1,107.87,45.9,107.87,107.1,107.87,107.1-46.67,107.1-107.87Z"/>
        <path class="cls-1" d="M2002.54,235.64h99.45v58.91c30.6-40.55,72.68-65.03,123.93-65.03h14.53v102.51h-14.53c-79.56,0-123.93,42.08-123.93,107.87v185.9h-99.45V235.64Z"/>
        <path class="cls-1" d="M2283.29,74.99h99.45v323.6l151.47-162.95h125.46l-163.71,173.66,169.83,216.49h-127.75l-110.93-143.82-44.37,46.66v97.16h-99.45V74.99Z"/>
        <path class="cls-1" d="M2678.79,118.59c0-35.19,27.54-61.96,62.73-61.96s62.73,26.77,62.73,61.96-27.54,61.97-62.73,61.97-62.73-26.78-62.73-61.97ZM2691.79,235.64h99.45v390.15h-99.45V235.64Z"/>
        <path class="cls-1" d="M2848.62,430.71c0-116.28,90.27-204.26,209.61-204.26s209.61,87.97,209.61,205.79c0,10.71-.77,22.95-3.06,32.9h-309.83c13,50.49,53.55,83.38,107.1,83.38,40.55,0,74.21-18.36,91.8-43.6h107.86c-29.83,77.26-107.1,130.05-201.96,130.05-120.87,0-211.14-87.97-211.14-204.26ZM2955.72,392.46h205.79c-12.24-47.43-52.02-79.56-103.28-79.56s-88.74,31.36-102.51,79.56Z"/>
      </g>
      <circle class="cls-2" cx="361.86" cy="361.86" r="361.86"/>
      <g>
        <g>
          <path class="cls-4" d="M361.73,294.25l-210.39,124.3v-168.43c0-35.47,38.58-57.47,69.11-39.42l104.1,61.57,37.18,21.99Z"/>
          <path class="cls-1" d="M572.35,250.05v227.64c0,23.08-18.72,41.8-41.8,41.8H193.2c-23.14,0-41.86-18.72-41.86-41.8v-59.12l210.38-124.32,37.25-22.01,104.34-61.59c30.54-18.02,69.05,3.98,69.05,39.39Z"/>
        </g>
        <path class="cls-3" d="M572.35,328.58v149.11c0,23.08-18.72,41.8-41.8,41.8H249.16l323.19-190.9Z"/>
      </g>
    </g>
  </g>
</svg>